<svg width="820" height="460" viewBox="0 0 820 460" xmlns="http://www.w3.org/2000/svg" font-family="-apple-system, BlinkMacSystemFont, Segoe UI, Helvetica, Arial, sans-serif">
<rect width="820" height="460" fill="#ffffff"/>
<text x="20" y="30" fill="#0f172a" font-size="16" font-weight="700">Most active organizations · 2026-W22</text>
<text x="20" y="50" fill="#64748b" font-size="12">Ranked by weekly commit count · 3,448 commits across 61 orgs</text>
<line x1="325.0" y1="60" x2="325.0" y2="410" stroke="#e2e8f0" stroke-width="1" stroke-dasharray="2,3"/>
<text x="325.0" y="56" fill="#64748b" font-size="10" text-anchor="middle">121</text>
<line x1="470.0" y1="60" x2="470.0" y2="410" stroke="#e2e8f0" stroke-width="1" stroke-dasharray="2,3"/>
<text x="470.0" y="56" fill="#64748b" font-size="10" text-anchor="middle">242</text>
<line x1="615.0" y1="60" x2="615.0" y2="410" stroke="#e2e8f0" stroke-width="1" stroke-dasharray="2,3"/>
<text x="615.0" y="56" fill="#64748b" font-size="10" text-anchor="middle">363</text>
<line x1="760.0" y1="60" x2="760.0" y2="410" stroke="#e2e8f0" stroke-width="1" stroke-dasharray="2,3"/>
<text x="760.0" y="56" fill="#64748b" font-size="10" text-anchor="middle">485</text>
<text x="170" y="91" fill="#0f172a" font-size="12" font-weight="500" text-anchor="end">meta</text>
<rect x="180" y="77" width="580" height="20" rx="3" fill="#ff6900"/>
<text x="768" y="91" fill="#0f172a" font-size="11" font-weight="600">485</text>
<text x="768" y="104" fill="#64748b" font-size="9">98 PRs · 121 issues</text>
<text x="170" y="125" fill="#0f172a" font-size="12" font-weight="500" text-anchor="end">sgl-project</text>
<rect x="180" y="111" width="396" height="20" rx="3" fill="#334155"/>
<text x="584" y="125" fill="#0f172a" font-size="11" font-weight="600">331</text>
<text x="584" y="138" fill="#64748b" font-size="9">338 PRs · 87 issues</text>
<text x="170" y="159" fill="#0f172a" font-size="12" font-weight="500" text-anchor="end">vllm-project</text>
<rect x="180" y="145" width="309" height="20" rx="3" fill="#334155"/>
<text x="497" y="159" fill="#0f172a" font-size="11" font-weight="600">258</text>
<text x="497" y="172" fill="#64748b" font-size="9">263 PRs · 111 issues</text>
<text x="170" y="193" fill="#0f172a" font-size="12" font-weight="500" text-anchor="end">google</text>
<rect x="180" y="179" width="275" height="20" rx="3" fill="#475569"/>
<text x="463" y="193" fill="#0f172a" font-size="11" font-weight="600">230</text>
<text x="463" y="206" fill="#64748b" font-size="9">196 PRs · 34 issues</text>
<text x="170" y="227" fill="#0f172a" font-size="12" font-weight="500" text-anchor="end">openxla</text>
<rect x="180" y="213" width="251" height="20" rx="3" fill="#475569"/>
<text x="439" y="227" fill="#0f172a" font-size="11" font-weight="600">210</text>
<text x="439" y="240" fill="#64748b" font-size="9">208 PRs · 3 issues</text>
<text x="170" y="261" fill="#0f172a" font-size="12" font-weight="500" text-anchor="end">ggml</text>
<rect x="180" y="247" width="210" height="20" rx="3" fill="#475569"/>
<text x="398" y="261" fill="#0f172a" font-size="11" font-weight="600">176</text>
<text x="398" y="274" fill="#64748b" font-size="9">135 PRs · 92 issues</text>
<text x="170" y="295" fill="#0f172a" font-size="12" font-weight="500" text-anchor="end">nvidia</text>
<rect x="180" y="281" width="197" height="20" rx="3" fill="#475569"/>
<text x="385" y="295" fill="#0f172a" font-size="11" font-weight="600">165</text>
<text x="385" y="308" fill="#64748b" font-size="9">180 PRs · 22 issues</text>
<text x="170" y="329" fill="#0f172a" font-size="12" font-weight="500" text-anchor="end">rocm</text>
<rect x="180" y="315" width="173" height="20" rx="3" fill="#475569"/>
<text x="361" y="329" fill="#0f172a" font-size="11" font-weight="600">145</text>
<text x="361" y="342" fill="#64748b" font-size="9">173 PRs · 15 issues</text>
<text x="170" y="363" fill="#0f172a" font-size="12" font-weight="500" text-anchor="end">jundot</text>
<rect x="180" y="349" width="161" height="20" rx="3" fill="#475569"/>
<text x="349" y="363" fill="#0f172a" font-size="11" font-weight="600">135</text>
<text x="349" y="376" fill="#64748b" font-size="9">47 PRs · 89 issues</text>
<text x="170" y="397" fill="#0f172a" font-size="12" font-weight="500" text-anchor="end">jax-ml</text>
<rect x="180" y="383" width="159" height="20" rx="3" fill="#475569"/>
<text x="347" y="397" fill="#0f172a" font-size="11" font-weight="600">133</text>
<text x="347" y="410" fill="#64748b" font-size="9">105 PRs · 16 issues</text>
<text x="470.0" y="440" fill="#64748b" font-size="10" text-anchor="middle">weekly commits</text>
</svg>