<svg width="820" height="460" viewBox="0 0 820 460" xmlns="http://www.w3.org/2000/svg" font-family="-apple-system, BlinkMacSystemFont, Segoe UI, Helvetica, Arial, sans-serif">
<rect width="820" height="460" fill="#ffffff"/>
<text x="20" y="30" fill="#0f172a" font-size="16" font-weight="700">Most active organizations · 2026-W31</text>
<text x="20" y="50" fill="#64748b" font-size="12">Ranked by weekly commit count · 4,718 commits across 68 orgs</text>
<line x1="325.0" y1="60" x2="325.0" y2="410" stroke="#e2e8f0" stroke-width="1" stroke-dasharray="2,3"/>
<text x="325.0" y="56" fill="#64748b" font-size="10" text-anchor="middle">104</text>
<line x1="470.0" y1="60" x2="470.0" y2="410" stroke="#e2e8f0" stroke-width="1" stroke-dasharray="2,3"/>
<text x="470.0" y="56" fill="#64748b" font-size="10" text-anchor="middle">209</text>
<line x1="615.0" y1="60" x2="615.0" y2="410" stroke="#e2e8f0" stroke-width="1" stroke-dasharray="2,3"/>
<text x="615.0" y="56" fill="#64748b" font-size="10" text-anchor="middle">313</text>
<line x1="760.0" y1="60" x2="760.0" y2="410" stroke="#e2e8f0" stroke-width="1" stroke-dasharray="2,3"/>
<text x="760.0" y="56" fill="#64748b" font-size="10" text-anchor="middle">418</text>
<text x="170" y="91" fill="#0f172a" font-size="12" font-weight="500" text-anchor="end">berriai</text>
<rect x="180" y="77" width="580" height="20" rx="3" fill="#ff6900"/>
<text x="768" y="91" fill="#0f172a" font-size="11" font-weight="600">418</text>
<text x="768" y="104" fill="#64748b" font-size="9">282 PRs · 184 issues</text>
<text x="170" y="125" fill="#0f172a" font-size="12" font-weight="500" text-anchor="end">modular</text>
<rect x="180" y="111" width="538" height="20" rx="3" fill="#334155"/>
<text x="726" y="125" fill="#0f172a" font-size="11" font-weight="600">388</text>
<text x="726" y="138" fill="#64748b" font-size="9">0 PRs · 12 issues</text>
<text x="170" y="159" fill="#0f172a" font-size="12" font-weight="500" text-anchor="end">meta</text>
<rect x="180" y="145" width="530" height="20" rx="3" fill="#334155"/>
<text x="718" y="159" fill="#0f172a" font-size="11" font-weight="600">382</text>
<text x="718" y="172" fill="#64748b" font-size="9">92 PRs · 117 issues</text>
<text x="170" y="193" fill="#0f172a" font-size="12" font-weight="500" text-anchor="end">sgl-project</text>
<rect x="180" y="179" width="420" height="20" rx="3" fill="#475569"/>
<text x="608" y="193" fill="#0f172a" font-size="11" font-weight="600">303</text>
<text x="608" y="206" fill="#64748b" font-size="9">329 PRs · 119 issues</text>
<text x="170" y="227" fill="#0f172a" font-size="12" font-weight="500" text-anchor="end">vllm-project</text>
<rect x="180" y="213" width="395" height="20" rx="3" fill="#475569"/>
<text x="583" y="227" fill="#0f172a" font-size="11" font-weight="600">285</text>
<text x="583" y="240" fill="#64748b" font-size="9">298 PRs · 168 issues</text>
<text x="170" y="261" fill="#0f172a" font-size="12" font-weight="500" text-anchor="end">tensorflow</text>
<rect x="180" y="247" width="387" height="20" rx="3" fill="#475569"/>
<text x="575" y="261" fill="#0f172a" font-size="11" font-weight="600">279</text>
<text x="575" y="274" fill="#64748b" font-size="9">258 PRs · 11 issues</text>
<text x="170" y="295" fill="#0f172a" font-size="12" font-weight="500" text-anchor="end">google</text>
<rect x="180" y="281" width="365" height="20" rx="3" fill="#475569"/>
<text x="553" y="295" fill="#0f172a" font-size="11" font-weight="600">263</text>
<text x="553" y="308" fill="#64748b" font-size="9">205 PRs · 27 issues</text>
<text x="170" y="329" fill="#0f172a" font-size="12" font-weight="500" text-anchor="end">openxla</text>
<rect x="180" y="315" width="268" height="20" rx="3" fill="#475569"/>
<text x="456" y="329" fill="#0f172a" font-size="11" font-weight="600">193</text>
<text x="456" y="342" fill="#64748b" font-size="9">190 PRs · 6 issues</text>
<text x="170" y="363" fill="#0f172a" font-size="12" font-weight="500" text-anchor="end">ai-dynamo</text>
<rect x="180" y="349" width="243" height="20" rx="3" fill="#475569"/>
<text x="431" y="363" fill="#0f172a" font-size="11" font-weight="600">175</text>
<text x="431" y="376" fill="#64748b" font-size="9">217 PRs · 32 issues</text>
<text x="170" y="397" fill="#0f172a" font-size="12" font-weight="500" text-anchor="end">nvidia</text>
<rect x="180" y="383" width="237" height="20" rx="3" fill="#475569"/>
<text x="425" y="397" fill="#0f172a" font-size="11" font-weight="600">171</text>
<text x="425" y="410" fill="#64748b" font-size="9">177 PRs · 19 issues</text>
<text x="470.0" y="440" fill="#64748b" font-size="10" text-anchor="middle">weekly commits</text>
</svg>