<svg width="820" height="460" viewBox="0 0 820 460" xmlns="http://www.w3.org/2000/svg" font-family="-apple-system, BlinkMacSystemFont, Segoe UI, Helvetica, Arial, sans-serif">
<rect width="820" height="460" fill="#ffffff"/>
<text x="20" y="30" fill="#0f172a" font-size="16" font-weight="700">Most active organizations · 2026-W24</text>
<text x="20" y="50" fill="#64748b" font-size="12">Ranked by weekly commit count · 3,893 commits across 66 orgs</text>
<line x1="325.0" y1="60" x2="325.0" y2="410" stroke="#e2e8f0" stroke-width="1" stroke-dasharray="2,3"/>
<text x="325.0" y="56" fill="#64748b" font-size="10" text-anchor="middle">117</text>
<line x1="470.0" y1="60" x2="470.0" y2="410" stroke="#e2e8f0" stroke-width="1" stroke-dasharray="2,3"/>
<text x="470.0" y="56" fill="#64748b" font-size="10" text-anchor="middle">234</text>
<line x1="615.0" y1="60" x2="615.0" y2="410" stroke="#e2e8f0" stroke-width="1" stroke-dasharray="2,3"/>
<text x="615.0" y="56" fill="#64748b" font-size="10" text-anchor="middle">351</text>
<line x1="760.0" y1="60" x2="760.0" y2="410" stroke="#e2e8f0" stroke-width="1" stroke-dasharray="2,3"/>
<text x="760.0" y="56" fill="#64748b" font-size="10" text-anchor="middle">469</text>
<text x="170" y="91" fill="#0f172a" font-size="12" font-weight="500" text-anchor="end">meta</text>
<rect x="180" y="77" width="580" height="20" rx="3" fill="#ff6900"/>
<text x="768" y="91" fill="#0f172a" font-size="11" font-weight="600">469</text>
<text x="768" y="104" fill="#64748b" font-size="9">74 PRs · 114 issues</text>
<text x="170" y="125" fill="#0f172a" font-size="12" font-weight="500" text-anchor="end">sgl-project</text>
<rect x="180" y="111" width="404" height="20" rx="3" fill="#334155"/>
<text x="592" y="125" fill="#0f172a" font-size="11" font-weight="600">327</text>
<text x="592" y="138" fill="#64748b" font-size="9">232 PRs · 57 issues</text>
<text x="170" y="159" fill="#0f172a" font-size="12" font-weight="500" text-anchor="end">modular</text>
<rect x="180" y="145" width="392" height="20" rx="3" fill="#334155"/>
<text x="580" y="159" fill="#0f172a" font-size="11" font-weight="600">317</text>
<text x="580" y="172" fill="#64748b" font-size="9">1 PRs · 12 issues</text>
<text x="170" y="193" fill="#0f172a" font-size="12" font-weight="500" text-anchor="end">vllm-project</text>
<rect x="180" y="179" width="344" height="20" rx="3" fill="#475569"/>
<text x="532" y="193" fill="#0f172a" font-size="11" font-weight="600">278</text>
<text x="532" y="206" fill="#64748b" font-size="9">180 PRs · 114 issues</text>
<text x="170" y="227" fill="#0f172a" font-size="12" font-weight="500" text-anchor="end">tensorflow</text>
<rect x="180" y="213" width="308" height="20" rx="3" fill="#475569"/>
<text x="496" y="227" fill="#0f172a" font-size="11" font-weight="600">249</text>
<text x="496" y="240" fill="#64748b" font-size="9">258 PRs · 24 issues</text>
<text x="170" y="261" fill="#0f172a" font-size="12" font-weight="500" text-anchor="end">openxla</text>
<rect x="180" y="247" width="276" height="20" rx="3" fill="#475569"/>
<text x="464" y="261" fill="#0f172a" font-size="11" font-weight="600">223</text>
<text x="464" y="274" fill="#64748b" font-size="9">140 PRs · 1 issues</text>
<text x="170" y="295" fill="#0f172a" font-size="12" font-weight="500" text-anchor="end">google</text>
<rect x="180" y="281" width="266" height="20" rx="3" fill="#475569"/>
<text x="454" y="295" fill="#0f172a" font-size="11" font-weight="600">215</text>
<text x="454" y="308" fill="#64748b" font-size="9">106 PRs · 27 issues</text>
<text x="170" y="329" fill="#0f172a" font-size="12" font-weight="500" text-anchor="end">jax-ml</text>
<rect x="180" y="315" width="171" height="20" rx="3" fill="#475569"/>
<text x="359" y="329" fill="#0f172a" font-size="11" font-weight="600">138</text>
<text x="359" y="342" fill="#64748b" font-size="9">76 PRs · 3 issues</text>
<text x="170" y="363" fill="#0f172a" font-size="12" font-weight="500" text-anchor="end">rocm</text>
<rect x="180" y="349" width="167" height="20" rx="3" fill="#475569"/>
<text x="355" y="363" fill="#0f172a" font-size="11" font-weight="600">135</text>
<text x="355" y="376" fill="#64748b" font-size="9">111 PRs · 12 issues</text>
<text x="170" y="397" fill="#0f172a" font-size="12" font-weight="500" text-anchor="end">ggml</text>
<rect x="180" y="383" width="158" height="20" rx="3" fill="#475569"/>
<text x="346" y="397" fill="#0f172a" font-size="11" font-weight="600">128</text>
<text x="346" y="410" fill="#64748b" font-size="9">67 PRs · 83 issues</text>
<text x="470.0" y="440" fill="#64748b" font-size="10" text-anchor="middle">weekly commits</text>
</svg>